<svg id="Livello_1" data-name="Livello 1" xmlns="http://www.w3.org/2000/svg" viewBox="0 0 207.05 164.55"><defs><style>.cls-1{fill:#62b8a0;}.cls-2{fill:#fff;opacity:0.9;}.cls-3{font-size:25px;fill:#221f20;font-family:ArialRoundedMTBold, Arial Rounded MT Bold;letter-spacing:-0.02em;}.cls-4{letter-spacing:0em;}.cls-5{letter-spacing:-0.01em;}.cls-6{letter-spacing:0em;}</style></defs><title>react-news</title><path class="cls-1" d="M207.43,73.1a42,42,0,0,1-3.2,5.92C193,92.61,197,111.61,186,124.61c-18,24-50,14-75.4,9.39a36.53,36.53,0,0,0-10,.1C77.27,137.32,53.87,158,32,139.61c-8-7.5-9.5-17.25-10-27.35-.18-3.37-.25-6.78-.4-10.17C23,82.61,6,66.61,8,47.61c1.5-23.25,23.25-25.68,43.28-25.34,3.34.06,6.63.19,9.77.32,16.95,0,30.95-12,47.95-14,18-2,32,11,49.41,13.64,3.87.69,7.78,1.38,11.6,2.2,23,4.91,43,14.43,40.08,41.83A41.83,41.83,0,0,1,207.43,73.1Z" transform="translate(-3.32)"/><path class="cls-2" d="M202.44,35.88a44.19,44.19,0,0,1-.88,6.94c-5.7,17.27,4.95,34.55-.74,51.16-8.33,29.85-42.18,31.15-67.85,35.45a35.45,35.45,0,0,0-9.44,3.58c-20.84,11.26-35.48,39.72-62.8,29.27-10.27-4.59-15.22-13.66-19.37-23.41C40,135.62,38.68,132.3,37.3,129,31.6,109.37,9.75,99.56,4.77,80.18c-7-23.38,12.67-33.34,31.72-40,3.18-1.11,6.34-2.12,9.35-3.09,16-5.87,24.91-22.53,40.25-30.41,16.29-8.23,34.22-.31,51.63-3.78,3.9-.66,7.84-1.34,11.76-1.87,23.47-3.16,45.87-.78,53,27.18A44.27,44.27,0,0,1,202.44,35.88Z" transform="translate(-3.32)"/><text class="cls-3" transform="translate(32.64 82.27)">R<tspan class="cls-4" x="17.36" y="0">eact N</tspan><tspan class="cls-5" x="96.02" y="0">e</tspan><tspan class="cls-6" x="110.55" y="0">ws</tspan></text></svg>